<?xml version="1.0"?>
<svg xmlns="http://www.w3.org/2000/svg" xmlns:xlink="http://www.w3.org/1999/xlink" version="1.1" x="0px" y="0px" viewBox="0 0 256 320" enable-background="new 0 0 256 256" xml:space="preserve">
  <g>
    <g transform="scale(0.5)">
      <path d="M278.1,290.3h-44.3c-7.8,0-14.1,6.3-14.1,14.1c0,7.8,6.3,14.1,14.1,14.1h44.3c7.8,0,14.1-6.3,14.1-14.1    C292.2,296.6,285.9,290.3,278.1,290.3z"/>
      <path d="M495.9,439.4H310.6c-5.1-19.8-20.7-35.4-40.5-40.5v-27.6h225.8c10.2,0,17-10.5,12.9-19.8l-45.1-103V45.2    c0-23.8-19.4-43.2-43.2-43.2H91.6C67.7,2,48.4,21.4,48.4,45.2v203.3l-45.2,103c-4.1,9.3,2.7,19.8,12.9,19.8h225.8V399    c-19.8,5.1-35.4,20.7-40.5,40.5H16.1c-7.8,0-14.1,6.3-14.1,14.1c0,7.8,6.3,14.1,14.1,14.1h185.3C207.7,492,229.8,510,256,510    s48.3-18,54.6-42.3h185.3c7.8,0,14.1-6.3,14.1-14.1C510,445.8,503.7,439.4,495.9,439.4z M76.6,171.7h21.9    c7.8,0,14.1-6.3,14.1-14.1s-6.3-14.1-14.1-14.1H76.6v-19.3h45.7c7.8,0,14.1-6.3,14.1-14.1s-6.3-14.1-14.1-14.1H76.6V45.2    c0-8.3,6.7-15,15-15h328.8c8.3,0,15,6.7,15,15v192.2H76.6V171.7z M37.7,343.1l34-77.5h368.6l34,77.5H37.7z M256,481.8    c-15.6,0-28.2-12.7-28.2-28.2s12.7-28.2,28.2-28.2s28.2,12.7,28.2,28.2S271.6,481.8,256,481.8z"/>
    </g>
  </g>
</svg>
