<?xml version="1.0"?>
<svg xmlns="http://www.w3.org/2000/svg" xmlns:xlink="http://www.w3.org/1999/xlink" version="1.0" x="0px" y="0px" viewBox="0 0 115.7 144.625" style="enable-background:new 0 0 115.7 115.7;" xml:space="preserve">
  <style type="text/css">
	.st0{fill:none;}
</style>
  <path d="M40.9,51.2c-5.8,0-15.2,8.1-15.2,13.9c0,5.8,4.7,10.4,10.4,10.4c5.8,0,10.4-4.7,10.4-10.4C46.6,59.3,46.7,51.2,40.9,51.2z   M38.7,72.5c-1.4,0-2.5-1.1-2.5-2.5s1.1-2.5,2.5-2.5c1.4,0,2.5,1.1,2.5,2.5S40.1,72.5,38.7,72.5z"/>
  <path d="M74.4,51.2c-5.8,0-5.7,8.1-5.7,13.9c0,5.8,4.7,10.4,10.4,10.4c5.8,0,10.4-4.7,10.4-10.4C89.6,59.3,80.1,51.2,74.4,51.2z   M76.1,72.5c-1.6,0-2.8-1.3-2.8-2.8c0-1.6,1.3-2.8,2.8-2.8c1.6,0,2.8,1.3,2.8,2.8C79,71.2,77.7,72.5,76.1,72.5z"/>
  <path d="M61.2,75.1h-7.1c-0.8,0-1.6-0.5-1.9-1.3l-1.5-3.4c0-1,0.8-1.7,1.7-1.7h10.7c1,0,1.7,0.8,1.7,1.7l-1.3,3.1  C63.1,74.5,62.2,75.1,61.2,75.1z"/>
  <g>
    <path d="M63.9,85c-0.7,0-1.4-0.4-1.8-1.1c-0.9-1.8-2.7-2.9-4.8-2.9c-2,0-3.7,1.1-4.7,2.8c-0.5,1-1.7,1.3-2.7,0.8   c-1-0.5-1.3-1.7-0.8-2.7c1.6-3,4.8-4.9,8.2-4.9c3.5,0,6.7,2,8.3,5.1c0.5,1,0.1,2.2-0.9,2.7C64.5,85,64.2,85,63.9,85z"/>
  </g>
  <rect x="108.3" y="37.4" class="st0" width="1.5" height="7.4"/>
  <path d="M112.3,37.4c0-8-6.5-14.5-14.5-14.5c-3.3,0-6.3,1.1-8.8,3c-9.5-9.7-20.6-15.3-30.9-15.3c-12.5,0-23.6,5.8-31.9,14.4  c-2.2-1.3-4.7-2.1-7.4-2.1c-8,0-14.5,6.5-14.5,14.5c0,5.6,3.2,10.5,7.8,12.9c-1,3.9-1.5,7.9-1.5,11.8c0,11.8,4.8,22.8,13.6,30.9  c8.8,8.1,20.9,12.6,33.9,12.6S83.2,101.1,92,93c8.8-8.1,13.6-19.1,13.6-30.9c0-3.7-0.6-7.6-1.8-11.5  C108.8,48.2,112.3,43.2,112.3,37.4z M58.1,101.3c-25,0-43.3-17.6-43.3-39.3s18.3-47.2,43.3-47.2c20.3,0,43.3,25.6,43.3,47.2  S83.1,101.3,58.1,101.3z"/>
</svg>
