<?xml version="1.0" encoding="UTF-8" standalone="no"?>
<!DOCTYPE svg PUBLIC "-//W3C//DTD SVG 1.1//EN"
 "http://www.w3.org/Graphics/SVG/1.1/DTD/svg11.dtd">
<!-- Generated by graphviz version 2.40.1 (20161225.0304)
 -->
<!-- Title: %3 Pages: 1 -->
<svg width="210pt" height="260pt"
 viewBox="0.00 0.00 210.00 260.00" xmlns="http://www.w3.org/2000/svg" xmlns:xlink="http://www.w3.org/1999/xlink">
<g id="graph0" class="graph" transform="scale(1 1) rotate(0) translate(4 256)">
<title>%3</title>
<polygon fill="#ffffff" stroke="transparent" points="-4,4 -4,-256 206,-256 206,4 -4,4"/>
<!-- D -->
<g id="node1" class="node">
<title>D</title>
<ellipse fill="none" stroke="#000000" cx="139" cy="-234" rx="27" ry="18"/>
<text text-anchor="middle" x="139" y="-230.3" font-family="Times,serif" font-size="14.00" fill="#000000">D</text>
</g>
<!-- F -->
<g id="node2" class="node">
<title>F</title>
<ellipse fill="none" stroke="#000000" cx="103" cy="-162" rx="27" ry="18"/>
<text text-anchor="middle" x="103" y="-158.3" font-family="Times,serif" font-size="14.00" fill="#000000">F</text>
</g>
<!-- D&#45;&gt;F -->
<g id="edge4" class="edge">
<title>D&#45;&gt;F</title>
<path fill="none" stroke="#000000" d="M130.2854,-216.5708C126.0403,-208.0807 120.8464,-197.6929 116.1337,-188.2674"/>
<polygon fill="#000000" stroke="#000000" points="119.237,-186.6477 111.6343,-179.2687 112.976,-189.7782 119.237,-186.6477"/>
</g>
<!-- E -->
<g id="node5" class="node">
<title>E</title>
<ellipse fill="none" stroke="#000000" cx="175" cy="-162" rx="27" ry="18"/>
<text text-anchor="middle" x="175" y="-158.3" font-family="Times,serif" font-size="14.00" fill="#000000">E</text>
</g>
<!-- D&#45;&gt;E -->
<g id="edge3" class="edge">
<title>D&#45;&gt;E</title>
<path fill="none" stroke="#000000" d="M147.7146,-216.5708C151.9597,-208.0807 157.1536,-197.6929 161.8663,-188.2674"/>
<polygon fill="#000000" stroke="#000000" points="165.024,-189.7782 166.3657,-179.2687 158.763,-186.6477 165.024,-189.7782"/>
</g>
<!-- A -->
<g id="node4" class="node">
<title>A</title>
<ellipse fill="none" stroke="#000000" cx="48" cy="-90" rx="27" ry="18"/>
<text text-anchor="middle" x="48" y="-86.3" font-family="Times,serif" font-size="14.00" fill="#000000">A</text>
</g>
<!-- F&#45;&gt;A -->
<g id="edge5" class="edge">
<title>F&#45;&gt;A</title>
<path fill="none" stroke="#000000" d="M90.5196,-145.6621C83.4876,-136.4564 74.5653,-124.7764 66.7117,-114.4953"/>
<polygon fill="#000000" stroke="#000000" points="69.2828,-112.0953 60.431,-106.2733 63.72,-116.3446 69.2828,-112.0953"/>
</g>
<!-- G -->
<g id="node6" class="node">
<title>G</title>
<ellipse fill="none" stroke="#000000" cx="166" cy="-90" rx="27" ry="18"/>
<text text-anchor="middle" x="166" y="-86.3" font-family="Times,serif" font-size="14.00" fill="#000000">G</text>
</g>
<!-- F&#45;&gt;G -->
<g id="edge6" class="edge">
<title>F&#45;&gt;G</title>
<path fill="none" stroke="#000000" d="M116.6701,-146.3771C125.1734,-136.659 136.2613,-123.987 145.7708,-113.1191"/>
<polygon fill="#000000" stroke="#000000" points="148.4056,-115.423 152.3566,-105.5924 143.1375,-110.8135 148.4056,-115.423"/>
</g>
<!-- B -->
<g id="node8" class="node">
<title>B</title>
<ellipse fill="none" stroke="#000000" cx="99" cy="-18" rx="27" ry="18"/>
<text text-anchor="middle" x="99" y="-14.3" font-family="Times,serif" font-size="14.00" fill="#000000">B</text>
</g>
<!-- F&#45;&gt;B -->
<g id="edge7" class="edge">
<title>F&#45;&gt;B</title>
<path fill="none" stroke="#000000" d="M102.4934,-143.7623C101.8111,-119.201 100.5902,-75.2474 99.7876,-46.3541"/>
<polygon fill="#000000" stroke="#000000" points="103.2789,-45.9885 99.5025,-36.0896 96.2816,-46.183 103.2789,-45.9885"/>
</g>
<!-- H -->
<g id="node3" class="node">
<title>H</title>
<ellipse fill="none" stroke="#000000" cx="171" cy="-18" rx="27" ry="18"/>
<text text-anchor="middle" x="171" y="-14.3" font-family="Times,serif" font-size="14.00" fill="#000000">H</text>
</g>
<!-- C -->
<g id="node7" class="node">
<title>C</title>
<ellipse fill="none" stroke="#000000" cx="27" cy="-18" rx="27" ry="18"/>
<text text-anchor="middle" x="27" y="-14.3" font-family="Times,serif" font-size="14.00" fill="#000000">C</text>
</g>
<!-- A&#45;&gt;C -->
<g id="edge1" class="edge">
<title>A&#45;&gt;C</title>
<path fill="none" stroke="#000000" d="M42.809,-72.2022C40.4616,-64.1541 37.6338,-54.4588 35.0228,-45.5067"/>
<polygon fill="#000000" stroke="#000000" points="38.3641,-44.4625 32.2041,-35.8425 31.6441,-46.4226 38.3641,-44.4625"/>
</g>
<!-- A&#45;&gt;B -->
<g id="edge2" class="edge">
<title>A&#45;&gt;B</title>
<path fill="none" stroke="#000000" d="M59.5727,-73.6621C65.9372,-64.6768 73.9715,-53.3343 81.1244,-43.2362"/>
<polygon fill="#000000" stroke="#000000" points="84.1951,-44.9562 87.1192,-34.7729 78.4829,-40.9101 84.1951,-44.9562"/>
</g>
<!-- G&#45;&gt;H -->
<g id="edge8" class="edge">
<title>G&#45;&gt;H</title>
<path fill="none" stroke="#000000" d="M167.2617,-71.8314C167.7965,-64.131 168.4323,-54.9743 169.0266,-46.4166"/>
<polygon fill="#000000" stroke="#000000" points="172.52,-46.6317 169.7213,-36.4133 165.5368,-46.1467 172.52,-46.6317"/>
</g>
</g>
</svg>
