<?xml version="1.0" encoding="UTF-8" standalone="no"?>
<!DOCTYPE svg PUBLIC "-//W3C//DTD SVG 1.1//EN"
 "http://www.w3.org/Graphics/SVG/1.1/DTD/svg11.dtd">
<!-- Generated by graphviz version 2.40.1 (20161225.0304)
 -->
<!-- Title: %3 Pages: 1 -->
<svg width="252pt" height="260pt"
 viewBox="0.00 0.00 252.00 260.00" xmlns="http://www.w3.org/2000/svg" xmlns:xlink="http://www.w3.org/1999/xlink">
<g id="graph0" class="graph" transform="scale(1 1) rotate(0) translate(4 256)">
<title>%3</title>
<polygon fill="#ffffff" stroke="transparent" points="-4,4 -4,-256 248,-256 248,4 -4,4"/>
<!-- D -->
<g id="node1" class="node">
<title>D</title>
<ellipse fill="none" stroke="#000000" cx="134" cy="-234" rx="27" ry="18"/>
<text text-anchor="middle" x="134" y="-230.3" font-family="Times,serif" font-size="14.00" fill="#000000">D</text>
</g>
<!-- F -->
<g id="node2" class="node">
<title>F</title>
<ellipse fill="none" stroke="#000000" cx="107" cy="-162" rx="27" ry="18"/>
<text text-anchor="middle" x="107" y="-158.3" font-family="Times,serif" font-size="14.00" fill="#000000">F</text>
</g>
<!-- D&#45;&gt;F -->
<g id="edge4" class="edge">
<title>D&#45;&gt;F</title>
<path fill="none" stroke="#000000" d="M127.3258,-216.2022C124.2524,-208.0064 120.5384,-198.1024 117.1305,-189.0145"/>
<polygon fill="#000000" stroke="#000000" points="120.3858,-187.7274 113.5974,-179.593 113.8315,-190.1853 120.3858,-187.7274"/>
</g>
<!-- E -->
<g id="node5" class="node">
<title>E</title>
<ellipse fill="none" stroke="#000000" cx="217" cy="-162" rx="27" ry="18"/>
<text text-anchor="middle" x="217" y="-158.3" font-family="Times,serif" font-size="14.00" fill="#000000">E</text>
</g>
<!-- D&#45;&gt;E -->
<g id="edge3" class="edge">
<title>D&#45;&gt;E</title>
<path fill="none" stroke="#000000" d="M150.7963,-219.4297C162.7998,-209.017 179.1387,-194.8435 192.5811,-183.1827"/>
<polygon fill="#000000" stroke="#000000" points="195.2515,-185.4996 200.5119,-176.3029 190.6646,-180.2118 195.2515,-185.4996"/>
</g>
<!-- A -->
<g id="node4" class="node">
<title>A</title>
<ellipse fill="none" stroke="#000000" cx="52" cy="-90" rx="27" ry="18"/>
<text text-anchor="middle" x="52" y="-86.3" font-family="Times,serif" font-size="14.00" fill="#000000">A</text>
</g>
<!-- F&#45;&gt;A -->
<g id="edge5" class="edge">
<title>F&#45;&gt;A</title>
<path fill="none" stroke="#000000" d="M94.5196,-145.6621C87.4876,-136.4564 78.5653,-124.7764 70.7117,-114.4953"/>
<polygon fill="#000000" stroke="#000000" points="73.2828,-112.0953 64.431,-106.2733 67.72,-116.3446 73.2828,-112.0953"/>
</g>
<!-- G -->
<g id="node6" class="node">
<title>G</title>
<ellipse fill="none" stroke="#000000" cx="162" cy="-90" rx="27" ry="18"/>
<text text-anchor="middle" x="162" y="-86.3" font-family="Times,serif" font-size="14.00" fill="#000000">G</text>
</g>
<!-- F&#45;&gt;G -->
<g id="edge6" class="edge">
<title>F&#45;&gt;G</title>
<path fill="none" stroke="#000000" d="M119.4804,-145.6621C126.5124,-136.4564 135.4347,-124.7764 143.2883,-114.4953"/>
<polygon fill="#000000" stroke="#000000" points="146.28,-116.3446 149.569,-106.2733 140.7172,-112.0953 146.28,-116.3446"/>
</g>
<!-- B -->
<g id="node8" class="node">
<title>B</title>
<ellipse fill="none" stroke="#000000" cx="99" cy="-18" rx="27" ry="18"/>
<text text-anchor="middle" x="99" y="-14.3" font-family="Times,serif" font-size="14.00" fill="#000000">B</text>
</g>
<!-- F&#45;&gt;B -->
<g id="edge7" class="edge">
<title>F&#45;&gt;B</title>
<path fill="none" stroke="#000000" d="M105.9868,-143.7623C104.6223,-119.201 102.1804,-75.2474 100.5752,-46.3541"/>
<polygon fill="#000000" stroke="#000000" points="104.0544,-45.88 100.005,-36.0896 97.0652,-46.2684 104.0544,-45.88"/>
</g>
<!-- H -->
<g id="node3" class="node">
<title>H</title>
<ellipse fill="none" stroke="#000000" cx="171" cy="-18" rx="27" ry="18"/>
<text text-anchor="middle" x="171" y="-14.3" font-family="Times,serif" font-size="14.00" fill="#000000">H</text>
</g>
<!-- A&#45;&gt;D -->
<g id="edge8" class="edge">
<title>A&#45;&gt;D</title>
<path fill="none" stroke="#ff0000" stroke-dasharray="5,2" d="M52.4453,-108.1378C53.653,-127.2443 57.7263,-157.6086 71,-180 79.4754,-194.297 93.1076,-206.6754 105.527,-215.9607"/>
<polygon fill="#ff0000" stroke="#ff0000" points="103.6748,-218.9382 113.853,-221.8803 107.731,-213.2332 103.6748,-218.9382"/>
</g>
<!-- C -->
<g id="node7" class="node">
<title>C</title>
<ellipse fill="none" stroke="#000000" cx="27" cy="-18" rx="27" ry="18"/>
<text text-anchor="middle" x="27" y="-14.3" font-family="Times,serif" font-size="14.00" fill="#000000">C</text>
</g>
<!-- A&#45;&gt;C -->
<g id="edge1" class="edge">
<title>A&#45;&gt;C</title>
<path fill="none" stroke="#000000" d="M45.8202,-72.2022C43.0047,-64.0936 39.6087,-54.3129 36.4809,-45.3049"/>
<polygon fill="#000000" stroke="#000000" points="39.6952,-43.8917 33.1087,-35.593 33.0825,-46.1878 39.6952,-43.8917"/>
</g>
<!-- A&#45;&gt;B -->
<g id="edge2" class="edge">
<title>A&#45;&gt;B</title>
<path fill="none" stroke="#000000" d="M62.9009,-73.3008C68.7736,-64.3043 76.1366,-53.0247 82.6787,-43.0029"/>
<polygon fill="#000000" stroke="#000000" points="85.6228,-44.8957 88.1582,-34.6087 79.7611,-41.0693 85.6228,-44.8957"/>
</g>
<!-- G&#45;&gt;D -->
<g id="edge10" class="edge">
<title>G&#45;&gt;D</title>
<path fill="none" stroke="#ff0000" stroke-dasharray="5,2" d="M158.4664,-108.1727C153.6642,-132.8697 145.0329,-177.2595 139.4117,-206.1684"/>
<polygon fill="#ff0000" stroke="#ff0000" points="135.9627,-205.5692 137.4896,-216.0535 142.834,-206.9054 135.9627,-205.5692"/>
</g>
<!-- G&#45;&gt;H -->
<g id="edge9" class="edge">
<title>G&#45;&gt;H</title>
<path fill="none" stroke="#000000" d="M164.2711,-71.8314C165.2336,-64.131 166.3782,-54.9743 167.4479,-46.4166"/>
<polygon fill="#000000" stroke="#000000" points="170.9309,-46.7702 168.6983,-36.4133 163.9849,-45.9019 170.9309,-46.7702"/>
</g>
</g>
</svg>
