<?xml version="1.0" encoding="UTF-8" standalone="no"?>
<!DOCTYPE svg PUBLIC "-//W3C//DTD SVG 1.1//EN"
 "http://www.w3.org/Graphics/SVG/1.1/DTD/svg11.dtd">
<!-- Generated by graphviz version 2.38.0 (20140413.2041)
 -->
<!-- Title: G Pages: 1 -->
<svg width="252pt" height="260pt"
 viewBox="0.00 0.00 252.00 260.00" xmlns="http://www.w3.org/2000/svg" xmlns:xlink="http://www.w3.org/1999/xlink">
<g id="graph0" class="graph" transform="scale(1 1) rotate(0) translate(4 256)">
<title>G</title>
<polygon fill="white" stroke="none" points="-4,4 -4,-256 248,-256 248,4 -4,4"/>
<!-- node0 -->
<g id="node1" class="node"><title>node0</title>
<ellipse fill="none" stroke="black" cx="134" cy="-234" rx="27" ry="18"/>
<text text-anchor="middle" x="134" y="-230.3" font-family="Times,serif" font-size="14.00">D</text>
</g>
<!-- node1 -->
<g id="node2" class="node"><title>node1</title>
<ellipse fill="none" stroke="black" cx="107" cy="-162" rx="27" ry="18"/>
<text text-anchor="middle" x="107" y="-158.3" font-family="Times,serif" font-size="14.00">F</text>
</g>
<!-- node0&#45;&gt;node1 -->
<g id="edge4" class="edge"><title>node0&#45;&gt;node1</title>
<path fill="none" stroke="black" d="M127.601,-216.411C124.486,-208.335 120.666,-198.431 117.165,-189.355"/>
<polygon fill="black" stroke="black" points="120.405,-188.027 113.54,-179.956 113.874,-190.546 120.405,-188.027"/>
</g>
<!-- node4 -->
<g id="node5" class="node"><title>node4</title>
<ellipse fill="none" stroke="black" cx="217" cy="-162" rx="27" ry="18"/>
<text text-anchor="middle" x="217" y="-158.3" font-family="Times,serif" font-size="14.00">E</text>
</g>
<!-- node0&#45;&gt;node4 -->
<g id="edge3" class="edge"><title>node0&#45;&gt;node4</title>
<path fill="none" stroke="black" d="M150.398,-219.17C162.641,-208.845 179.552,-194.582 193.27,-183.013"/>
<polygon fill="black" stroke="black" points="195.53,-185.685 200.918,-176.563 191.018,-180.334 195.53,-185.685"/>
</g>
<!-- node3 -->
<g id="node4" class="node"><title>node3</title>
<ellipse fill="none" stroke="black" cx="52" cy="-90" rx="27" ry="18"/>
<text text-anchor="middle" x="52" y="-86.3" font-family="Times,serif" font-size="14.00">A</text>
</g>
<!-- node1&#45;&gt;node3 -->
<g id="edge5" class="edge"><title>node1&#45;&gt;node3</title>
<path fill="none" stroke="black" d="M95.0658,-145.811C87.7864,-136.546 78.3374,-124.52 70.1456,-114.094"/>
<polygon fill="black" stroke="black" points="72.8413,-111.86 63.9109,-106.159 67.337,-116.185 72.8413,-111.86"/>
</g>
<!-- node5 -->
<g id="node6" class="node"><title>node5</title>
<ellipse fill="none" stroke="black" cx="162" cy="-90" rx="27" ry="18"/>
<text text-anchor="middle" x="162" y="-86.3" font-family="Times,serif" font-size="14.00">G</text>
</g>
<!-- node1&#45;&gt;node5 -->
<g id="edge6" class="edge"><title>node1&#45;&gt;node5</title>
<path fill="none" stroke="black" d="M118.934,-145.811C126.214,-136.546 135.663,-124.52 143.854,-114.094"/>
<polygon fill="black" stroke="black" points="146.663,-116.185 150.089,-106.159 141.159,-111.86 146.663,-116.185"/>
</g>
<!-- node7 -->
<g id="node8" class="node"><title>node7</title>
<ellipse fill="none" stroke="black" cx="99" cy="-18" rx="27" ry="18"/>
<text text-anchor="middle" x="99" y="-14.3" font-family="Times,serif" font-size="14.00">B</text>
</g>
<!-- node1&#45;&gt;node7 -->
<g id="edge7" class="edge"><title>node1&#45;&gt;node7</title>
<path fill="none" stroke="black" d="M106.035,-143.871C104.672,-119.67 102.167,-75.2108 100.543,-46.3932"/>
<polygon fill="black" stroke="black" points="104.025,-45.9765 99.9684,-36.1893 97.0365,-46.3703 104.025,-45.9765"/>
</g>
<!-- node2 -->
<g id="node3" class="node"><title>node2</title>
<ellipse fill="none" stroke="black" cx="171" cy="-18" rx="27" ry="18"/>
<text text-anchor="middle" x="171" y="-14.3" font-family="Times,serif" font-size="14.00">H</text>
</g>
<!-- node3&#45;&gt;node0 -->
<g id="edge8" class="edge"><title>node3&#45;&gt;node0</title>
<path fill="none" stroke="black" d="M52.4075,-108.271C53.5645,-127.139 57.5776,-157.652 71,-180 79.6102,-194.336 93.5094,-206.639 106.065,-215.772"/>
<polygon fill="black" stroke="black" points="104.244,-218.768 114.461,-221.575 108.224,-213.01 104.244,-218.768"/>
</g>
<!-- node6 -->
<g id="node7" class="node"><title>node6</title>
<ellipse fill="none" stroke="black" cx="27" cy="-18" rx="27" ry="18"/>
<text text-anchor="middle" x="27" y="-14.3" font-family="Times,serif" font-size="14.00">C</text>
</g>
<!-- node3&#45;&gt;node6 -->
<g id="edge1" class="edge"><title>node3&#45;&gt;node6</title>
<path fill="none" stroke="black" d="M46.0753,-72.411C43.2218,-64.4211 39.7292,-54.6417 36.516,-45.6447"/>
<polygon fill="black" stroke="black" points="39.7153,-44.1964 33.0558,-35.9562 33.1231,-46.5508 39.7153,-44.1964"/>
</g>
<!-- node3&#45;&gt;node7 -->
<g id="edge2" class="edge"><title>node3&#45;&gt;node7</title>
<path fill="none" stroke="black" d="M62.665,-73.1159C68.5541,-64.345 75.9944,-53.2637 82.6062,-43.4162"/>
<polygon fill="black" stroke="black" points="85.7086,-45.0745 88.3772,-34.8212 79.897,-41.1724 85.7086,-45.0745"/>
</g>
<!-- node5&#45;&gt;node0 -->
<g id="edge10" class="edge"><title>node5&#45;&gt;node0</title>
<path fill="none" stroke="black" d="M158.611,-108.189C153.811,-132.531 144.987,-177.28 139.312,-206.059"/>
<polygon fill="black" stroke="black" points="135.878,-205.383 137.377,-215.871 142.746,-206.738 135.878,-205.383"/>
</g>
<!-- node5&#45;&gt;node2 -->
<g id="edge9" class="edge"><title>node5&#45;&gt;node2</title>
<path fill="none" stroke="black" d="M164.179,-72.055C165.17,-64.3456 166.368,-55.0269 167.482,-46.3642"/>
<polygon fill="black" stroke="black" points="170.975,-46.64 168.779,-36.2753 164.032,-45.7473 170.975,-46.64"/>
</g>
</g>
</svg>
