<?xml version="1.0"?>
<svg xmlns="http://www.w3.org/2000/svg" viewBox="0 0 512 640" x="0px" y="0px">
  <defs>
    <style>.cls-1,.cls-2{stroke:#000;stroke-linecap:round;stroke-linejoin:round;stroke-width:20px;}.cls-2{fill:none;}</style>
  </defs>
  <title>Happy-Emoji-Emotion-Face-Expression-Feeling</title>
  <path class="cls-1" d="M290.06,314.45c0,11.76-33.29,28.15-33.29,28.15s-33.29-16.39-33.29-28.15,14.91-13.17,33.29-13.17S290.06,302.69,290.06,314.45Z"/>
  <path d="M475.47,193.65c19.08-14,30.23-34.34,30.23-55.79,0-19.49-7.92-40.14-21.72-56.64C469.3,63.67,449.89,53.6,430.72,53.6c-23.39,0-47.3,14.44-63,37.42-30-14.18-67.1-24-112.45-24.09h-1c-45.07.13-82,9.8-111.9,23.84C126.7,67.93,102.87,53.6,79.57,53.6,60.41,53.6,41,63.67,26.31,81.22c-13.8,16.5-21.72,37.15-21.72,56.64,0,21.25,11,41.39,29.71,55.42A258.51,258.51,0,0,0,2.18,316.94c0,56.25,26.15,103.34,75.63,136.18,44.64,29.62,107.29,46,176.48,46.12h1c69.19-.13,131.83-16.5,176.47-46.12,49.48-32.84,75.64-79.93,75.64-136.18A258.51,258.51,0,0,0,475.47,193.65Zm-54.78,242.8c-41.5,27.54-100.41,42.74-165.91,42.79S130.38,464,88.87,436.45C45.24,407.5,22.18,366.17,22.18,316.94A238.45,238.45,0,0,1,56,195.53c.05-.09.12-.16.18-.25,21.3-35.57,51.41-64.13,87.07-82.59l.38-.22C172.53,97.58,209.1,87,254.78,86.93,344.43,87,399,127.71,429,161.84c37.1,42.2,58.38,98.73,58.38,155.1C487.39,366.17,464.32,407.5,420.69,436.45Z"/>
  <path d="M164.29,198a81.37,81.37,0,0,0-51.17,18.13C96.61,229.5,85.66,249.3,81.46,273.32c-4,22.76.48,43.84,12.24,57.84,9.45,11.25,23.24,17.45,38.81,17.45,17.12,0,36.8-8.71,54-23.89S215.85,290.11,220,271.3c4.46-20.4.86-39.17-10.14-52.84C199.33,205.43,182.73,198,164.29,198Zm-5.8,82.82a16.22,16.22,0,1,1,16.21-16.21A16.22,16.22,0,0,1,158.49,280.77Z"/>
  <path d="M397.17,216.08A81.37,81.37,0,0,0,346,198c-18.44,0-35,7.48-45.53,20.51-11,13.67-14.6,32.44-10.14,52.84,4.11,18.81,16.31,38.28,33.45,53.42s36.88,23.89,54,23.89c15.57,0,29.36-6.2,38.81-17.45,11.76-14,16.22-35.08,12.24-57.84C424.63,249.3,413.68,229.5,397.17,216.08Zm-42.12,64.69a16.22,16.22,0,1,1,16.22-16.21A16.21,16.21,0,0,1,355.05,280.77Z"/>
  <path class="cls-2" d="M175.81,377c51.76,20.83,81-20.32,81-20.32v-14"/>
  <path class="cls-2" d="M337.73,377c-51.76,20.83-81-20.32-81-20.32v-14"/>
  <path class="cls-1" d="M256.77,356.63h0s-24.89,35.07-69.44,24.06l.54,1.78s9.75,46.68,68.13,46.68,68.12-46.68,68.12-46.68l.54-1.42C281.08,390.87,256.77,356.63,256.77,356.63Z"/>
</svg>
